<svg width="48" height="48" viewBox="0 0 48 48" fill="none" xmlns="http://www.w3.org/2000/svg">
  <!-- Background circle -->
  <circle cx="24" cy="24" r="24" fill="#0d9488"/>
  <!-- Crescent moon -->
  <path
    d="M32 6C22.06 6 14 14.06 14 24s8.06 18 18 18c3.08 0 5.98-.78 8.52-2.14C36.2 42.42 30.38 44 24.2 44 12.32 44 2.6 34.51 2.6 22.9S12.32 2 24.2 2c6.1 0 11.6 2.5 15.54 6.52A17.9 17.9 0 0 0 32 6Z"
    fill="#ffffff"
    opacity="0.25"
  />
  <path
    d="M32 6C22.06 6 14 14.06 14 24s8.06 18 18 18c3.08 0 5.98-.78 8.52-2.14C36.2 42.42 30.38 44 24.2 44 12.32 44 2.6 34.51 2.6 22.9S12.32 2 24.2 2c6.1 0 11.6 2.5 15.54 6.52A17.9 17.9 0 0 0 32 6Z"
    stroke="#ffffff"
    stroke-width="1.5"
    fill="none"
  />
  <!-- Star -->
  <polygon
    points="40,10 41.5,14 45.5,14 42.2,16.5 43.5,20.5 40,18 36.5,20.5 37.8,16.5 34.5,14 38.5,14"
    fill="#ffffff"
  />
</svg>
